<?xml version="1.0" encoding="UTF-8"?>
<svg version="1.1" xmlns="http://www.w3.org/2000/svg" width="96" height="96">
<path d="M0 0 C1.12409775 -0.0049926 1.12409775 -0.0049926 2.27090454 -0.01008606 C3.84921662 -0.01512587 5.42753926 -0.0174953 7.00585938 -0.01733398 C9.39992105 -0.01951835 11.79351976 -0.03769935 14.1875 -0.05664062 C15.72916511 -0.05957574 17.27083238 -0.06155974 18.8125 -0.0625 C19.8707045 -0.07327827 19.8707045 -0.07327827 20.95028687 -0.08427429 C28.44995908 -0.05038004 35.11261435 1.27220724 41.0390625 6.16796875 C48.79778688 14.9987417 48.47707403 22.86951758 48.0390625 34.16796875 C47.25239191 40.83973197 44.31047111 46.85499807 39.0390625 51.16796875 C38.3790625 51.16796875 37.7190625 51.16796875 37.0390625 51.16796875 C37.0390625 51.82796875 37.0390625 52.48796875 37.0390625 53.16796875 C30.72827923 56.47590753 25.60615445 57.76912745 18.5078125 57.69921875 C17.63185425 57.70304565 16.755896 57.70687256 15.85339355 57.71081543 C14.01471802 57.71351852 12.17600296 57.70627058 10.33740234 57.68945312 C7.54566563 57.66801945 4.75650178 57.6893088 1.96484375 57.71484375 C0.16666107 57.71220019 -1.63152003 57.70707462 -3.4296875 57.69921875 C-4.25182739 57.70731567 -5.07396729 57.7154126 -5.92102051 57.72375488 C-12.01431643 57.62664191 -16.5832848 55.98678618 -21.9609375 53.16796875 C-21.9609375 52.50796875 -21.9609375 51.84796875 -21.9609375 51.16796875 C-23.2809375 50.50796875 -24.6009375 49.84796875 -25.9609375 49.16796875 C-25.9609375 48.50796875 -25.9609375 47.84796875 -25.9609375 47.16796875 C-26.6209375 47.16796875 -27.2809375 47.16796875 -27.9609375 47.16796875 C-32.2054448 38.85580862 -32.25354015 28.56541518 -30.421875 19.5 C-28.95645345 15.33723658 -26.64919406 11.63668689 -23.9609375 8.16796875 C-23.3009375 8.16796875 -22.6409375 8.16796875 -21.9609375 8.16796875 C-21.6309375 7.17796875 -21.3009375 6.18796875 -20.9609375 5.16796875 C-14.14314702 0.6227751 -8.14122154 0.01276887 0 0 Z M14.0390625 22.16796875 C12.03838689 25.29946101 12.03343399 27.05915089 12.2265625 30.79296875 C13.05649959 34.24039974 13.33250068 35.10037253 16.0390625 37.16796875 C20.37552736 38.26310988 24.6415269 38.52478635 28.9765625 37.41796875 C31.08622985 36.13938247 32.47312233 35.07071728 34.0390625 33.16796875 C34.6618712 30.12125592 34.54849498 27.23010093 34.0390625 24.16796875 C31.84074886 21.135812 30.58943056 20.35142477 27.0390625 19.16796875 C21.83674043 18.77534067 18.40763758 19.22172044 14.0390625 22.16796875 Z " fill="#FF5B37" transform="translate(38.9609375,18.83203125)"/>
<path d="M0 0 C0.33 0 0.66 0 1 0 C1 17.82 1 35.64 1 54 C0.67 54 0.34 54 0 54 C0 36.18 0 18.36 0 0 Z " fill="#FF5F39" transform="translate(95,22)"/>
</svg>
